# xmcd
#
# Track frame offsets: 
#        150
#        13360
#        25660
#        38237
#        50647
#        63185
#        75935
#        89965
#        103327
#        117660
#        130800
#        144025
#        156450
#        170075
#        182702
#        195207
#        210987
#        225112
#        240057
#        255367
#        270445
#        286035
#        300512
#        314970
#        329200
#
# Disc length: 4580 seconds
#
# Revision: 2
# Processed by: cddbd v1.5.2PL0 Copyright (c) Steve Scherf et al.
# Submitted via: ExactAudioCopyFreeDBPlugin 1.0
#
DISCID=5611e219
DTITLE=Various Artist - Carl Martin and Willie "61" Blackwell - Complete Record
DTITLE=ed Works
DYEAR=1994
DGENRE=Blues
TTITLE0=Tennessee Chocolate Drops - Knox County Stomp
TTITLE1=Tennessee Chocolate Drops - Vine Street Drag
TTITLE2=Louie Bluie and Ted Bogan - State Street Rag
TTITLE3=Louie Bluie and Ted Bogan - Ted's Stomp
TTITLE4=Carl Martin - You Can Go Your Own Way
TTITLE5=Carl Martin - Kid Man Blues
TTITLE6=Carl Martin - Farewell to You Baby
TTITLE7=Carl Martin - You Can't Play Me Cheap
TTITLE8=Carl Martin - Badly Mistreated Man
TTITLE9=Carl Martin - Good Morning, Judge
TTITLE10=Carl Martin - Crow Jane
TTITLE11=Carl Martin - Old Time Blues
TTITLE12=Carl Martin - That New Kind of Stuff
TTITLE13=Carl Martin - Joe Louis Blues
TTITLE14=Carl Martin - Let's Have A New Deal
TTITLE15=Carl Martin - I'm Gonna Have My Fun (When I Get My Bonus)
TTITLE16=Carl Martin - High Water Flood Blues
TTITLE17=Willie "61" Blackwell - She's Young and Wild
TTITLE18=Willie "61" Blackwell - Noiseless Motor Blues
TTITLE19=Willie "61" Blackwell - Don't Misuse Me, Baby
TTITLE20=Willie "61" Blackwell - Bald Eagle Blues
TTITLE21=Willie "61" Blackwell - Four O'Clock Flower Blues
TTITLE22=Willie "61" Blackwell - Chalk My Toy
TTITLE23=Willie "61" Blackwell - Machine Gun Blues
TTITLE24=Willie "61" Blackwell - Rampaw Street Blues
EXTD=
EXTT0=
EXTT1=
EXTT2=
EXTT3=
EXTT4=
EXTT5=
EXTT6=
EXTT7=
EXTT8=
EXTT9=
EXTT10=
EXTT11=
EXTT12=
EXTT13=
EXTT14=
EXTT15=
EXTT16=
EXTT17=
EXTT18=
EXTT19=
EXTT20=
EXTT21=
EXTT22=
EXTT23=
EXTT24=
PLAYORDER=
